# xmcd
#
# Track frame offsets:
#	150
#	15945
#	28844
#	41009
#	59671
#	69902
#	79408
#	95878
#	107869
#	120200
#	131591
#	149114
#	160514
#	168844
#
# Disc length: 2464 seconds
#
# Revision: 0
# Processed by: cddbd v1.5.1PL0 Copyright (c) Steve Scherf et al.
# Submitted via: dBpowerAMP V4.0
#
DISCID=bd099e0e
DTITLE=Honest D and the Steel Reserve - Horseradish Rag and Other Songs of Music
DYEAR=2004
DGENRE=Country
TTITLE0=Signs of Lonesome
TTITLE1=Well's About Dry
TTITLE2=Horseradish Rag
TTITLE3=Fool's Heart
TTITLE4=This Time I Won
TTITLE5=I'm Goin' Up
TTITLE6=Starting To Fall
TTITLE7=Girl From Washington
TTITLE8=Damn The Liquor
TTITLE9=I Understand Honey
TTITLE10=Low As Low
TTITLE11=Let a Good One Go
TTITLE12=Sorry Buddy
TTITLE13=14.419
EXTD=
EXTT0=
EXTT1=
EXTT2=
EXTT3=
EXTT4=
EXTT5=
EXTT6=
EXTT7=
EXTT8=
EXTT9=
EXTT10=
EXTT11=
EXTT12=
EXTT13=
PLAYORDER=
